<?xml version="1.0" standalone="no"?>
<!DOCTYPE svg PUBLIC "-//W3C//DTD SVG 20010904//EN"
 "http://www.w3.org/TR/2001/REC-SVG-20010904/DTD/svg10.dtd">
<svg version="1.0" xmlns="http://www.w3.org/2000/svg"
 width="934.000000pt" height="933.000000pt" viewBox="0 0 934.000000 933.000000"
 preserveAspectRatio="xMidYMid meet">

<g transform="translate(0.000000,933.000000) scale(0.100000,-0.100000)"
fill="#000000" stroke="none">
<path d="M4389 8428 c-157 -273 -267 -463 -389 -673 -185 -319 -329 -570 -327
-572 1 -1 95 -13 207 -28 490 -62 1043 -145 1469 -221 139 -25 257 -44 261
-42 7 3 -68 138 -250 448 -37 64 -121 209 -315 545 -99 171 -333 574 -428 738
-28 48 -54 87 -58 87 -4 0 -80 -127 -170 -282z m245 -262 c42 -8 40 -21 -5
-31 -17 -4 -32 -12 -34 -18 -3 -7 -10 -25 -16 -42 l-11 -30 -18 41 c-15 35
-24 43 -54 48 -42 8 -40 21 5 31 29 6 35 15 54 70 6 17 10 14 25 -21 15 -35
24 -43 54 -48z m-281 -303 c12 -42 19 -50 55 -63 58 -22 59 -27 6 -42 -44 -12
-48 -16 -61 -61 -7 -26 -16 -47 -18 -47 -2 0 -11 21 -18 47 -13 44 -17 49 -60
62 -26 8 -47 17 -47 20 0 3 21 13 47 21 44 14 49 19 62 63 8 26 16 47 17 47 2
0 10 -21 17 -47z m529 -199 c4 -6 33 -16 64 -23 63 -14 61 -21 -12 -45 -50
-16 -51 -17 -68 -78 -9 -33 -19 -58 -21 -56 -3 3 -13 29 -23 59 -19 53 -20 54
-75 69 -30 8 -58 18 -61 21 -3 3 20 14 53 24 l59 17 18 66 17 66 21 -54 c12
-30 24 -60 28 -66z"/>
<path d="M5350 8528 c-36 -56 -66 -105 -68 -109 -2 -4 72 -57 165 -118 100
-66 159 -111 147 -111 -35 0 -74 -38 -74 -71 0 -37 18 -38 22 -2 2 17 13 33
29 42 59 33 223 -41 283 -127 35 -51 36 -104 1 -120 -14 -6 -25 -16 -25 -22 0
-19 31 -10 57 16 19 19 24 33 21 55 -3 16 -3 29 -1 29 2 0 70 -44 151 -98 81
-54 152 -102 159 -105 15 -9 159 202 146 213 -4 5 -83 58 -175 119 l-168 111
-26 -40 c-30 -44 -31 -45 -57 -26 -17 13 -17 16 -2 39 14 23 14 25 -1 31 -9 3
-14 13 -10 21 3 9 -9 25 -37 43 -49 34 -108 38 -130 9 -11 -16 -15 -17 -25 -5
-9 11 -6 22 13 51 14 20 25 38 25 41 0 5 -348 237 -353 235 -1 0 -31 -46 -67
-101z m126 41 l44 -30 -17 -30 c-31 -52 -38 -53 -87 -19 l-46 31 26 39 c15 22
29 40 31 40 2 0 24 -14 49 -31z m147 -100 c5 -4 -3 -25 -18 -47 l-27 -41 -48
32 -48 32 30 42 29 43 37 -27 c20 -15 41 -30 45 -34z m-195 -70 c-12 -21 -25
-39 -30 -39 -14 0 -88 52 -88 62 0 5 12 25 26 43 l26 35 44 -31 45 -30 -23
-40z m268 24 c24 -16 44 -32 44 -36 0 -7 -23 -44 -46 -76 -3 -3 -30 13 -83 48
-11 7 -9 16 10 50 13 22 26 41 28 41 2 0 23 -12 47 -27z m-136 -61 c0 -4 -11
-24 -25 -45 l-26 -37 -37 27 c-20 15 -41 30 -45 34 -5 4 3 25 18 48 l27 40 44
-30 c24 -16 44 -33 44 -37z m76 -42 l44 -31 -26 -39 c-15 -22 -29 -40 -31 -40
-2 0 -24 14 -49 31 -27 18 -42 35 -38 42 16 27 46 67 50 67 3 0 25 -14 50 -30z
m74 -77 c0 -9 -34 -63 -40 -63 -3 0 -10 4 -17 8 -17 11 23 73 43 65 8 -3 14
-7 14 -10z m365 -73 l44 -30 -20 -35 c-12 -19 -25 -38 -30 -41 -5 -3 -29 9
-54 26 l-45 31 26 39 c15 22 29 40 31 40 2 0 24 -14 48 -30z m-154 -89 c-5 -9
-16 -25 -24 -35 -13 -18 -14 -18 -30 4 -15 21 -15 25 0 51 15 26 18 26 39 12
18 -11 21 -19 15 -32z m288 -1 l23 -17 -27 -41 -27 -41 -48 32 c-45 29 -48 34
-36 52 7 11 19 30 26 42 13 20 16 21 40 6 15 -8 37 -23 49 -33z m-201 -11 c25
-18 39 -36 35 -42 -3 -7 -15 -24 -25 -40 l-20 -27 -40 22 c-22 13 -43 28 -45
35 -4 11 37 83 48 83 3 0 24 -14 47 -31z m290 -50 c41 -30 41 -31 27 -57 -31
-58 -29 -57 -79 -26 -25 16 -46 32 -46 37 0 10 44 77 51 77 3 0 24 -14 47 -31z
m-178 -25 c22 -15 40 -30 40 -33 0 -3 -11 -23 -26 -44 l-25 -37 -45 31 c-24
18 -44 34 -44 36 0 9 46 73 53 73 4 0 25 -12 47 -26z m132 -86 l27 -19 -25
-37 c-14 -20 -27 -38 -29 -40 -3 -4 -42 18 -89 50 -6 4 1 23 17 47 30 45 34
45 99 -1z"/>
<path d="M1163 8260 c-39 -16 -21 -40 28 -40 24 0 37 29 18 41 -17 10 -18 10
-46 -1z"/>
<path d="M1015 8250 c-3 -5 1 -10 9 -10 9 0 16 5 16 10 0 6 -4 10 -9 10 -6 0
-13 -4 -16 -10z"/>
<path d="M5609 8020 c10 -44 20 -82 22 -84 6 -6 156 28 165 37 10 10 -17 9
-76 -4 -28 -6 -53 -9 -55 -7 -3 2 12 28 31 57 20 29 33 55 30 59 -7 7 -5 9
-49 -57 l-36 -54 -6 29 c-18 79 -26 104 -34 104 -5 0 -1 -36 8 -80z"/>
<path d="M5510 7910 c0 -11 15 -37 34 -58 30 -32 40 -37 76 -36 40 1 85 24 46
24 -9 0 -15 4 -12 9 10 16 -5 41 -25 41 -10 0 -24 9 -31 20 -15 23 -28 26 -28
7 0 -19 30 -44 60 -50 l25 -4 -26 -2 c-26 -1 -69 34 -69 57 0 7 -4 12 -10 12
-20 0 -10 -32 19 -61 16 -16 25 -29 20 -29 -16 0 -48 38 -55 65 -7 30 -24 33
-24 5z m127 -76 c-3 -3 -12 -4 -19 -1 -8 3 -5 6 6 6 11 1 17 -2 13 -5z"/>
<path d="M5602 7918 c5 -15 28 -23 28 -10 0 5 -7 13 -16 16 -10 4 -14 1 -12
-6z"/>
<path d="M7893 7770 c-13 -5 -23 -14 -23 -20 0 -13 50 -13 70 0 13 9 13 11 0
20 -18 11 -18 11 -47 0z"/>
<path d="M9210 7755 c-10 -12 -9 -16 4 -21 22 -8 46 2 46 21 0 19 -34 20 -50
0z"/>
<path d="M2796 7612 c-2 -4 22 -29 55 -56 32 -26 59 -51 59 -54 0 -4 -58 -38
-129 -76 -124 -67 -130 -69 -192 -67 -36 1 -77 -3 -92 -8 -24 -9 -39 -5 -110
30 -45 23 -101 52 -124 66 l-43 25 32 26 c17 14 37 41 44 59 31 74 9 71 -52
-7 -26 -33 -53 -60 -61 -60 -7 0 -17 -10 -22 -23 -5 -13 -20 -31 -33 -39 -31
-20 -65 -95 -51 -109 7 -7 21 5 46 38 69 94 59 94 179 9 100 -71 129 -101 111
-116 -33 -28 -236 -160 -247 -160 -8 0 -25 15 -40 34 -26 34 -86 63 -106 51
-6 -4 14 -27 46 -53 31 -25 60 -56 65 -69 5 -13 16 -23 26 -23 10 0 26 -14 35
-30 18 -31 94 -74 112 -63 5 4 -17 30 -50 59 -32 29 -57 55 -54 57 3 3 66 35
140 73 l135 68 90 -3 c72 -2 98 -7 130 -25 22 -13 73 -42 113 -65 l74 -43 -40
-33 c-40 -35 -71 -90 -57 -103 4 -4 33 21 65 56 32 34 61 62 65 62 10 0 115
109 115 120 0 4 3 15 6 24 12 33 -18 14 -70 -41 l-53 -57 -94 70 -94 71 0 44
0 45 95 68 c51 38 102 71 112 74 12 3 26 -5 39 -22 24 -31 95 -70 110 -60 10
6 -125 144 -140 144 -4 0 -15 14 -24 30 -10 17 -36 39 -57 50 -43 22 -56 24
-64 12z"/>
<path d="M2995 7290 c-3 -5 3 -10 14 -10 12 0 21 5 21 10 0 6 -6 10 -14 10 -8
0 -18 -4 -21 -10z"/>
<path d="M3598 7058 c-36 -62 -102 -176 -147 -253 -44 -77 -117 -203 -162
-280 -45 -77 -140 -241 -211 -365 -71 -124 -182 -315 -245 -425 -157 -271
-219 -378 -262 -452 l-36 -63 -686 0 c-519 0 -688 -3 -697 -12 -16 -16 -15
-93 1 -106 6 -5 62 -12 122 -14 99 -3 115 -6 163 -33 65 -35 89 -67 102 -136
6 -31 10 -325 10 -731 l0 -678 -26 -41 c-14 -23 -60 -101 -101 -173 -41 -72
-99 -171 -128 -221 -29 -49 -77 -133 -107 -185 -108 -187 -248 -428 -357 -617
-61 -106 -111 -197 -111 -202 0 -26 367 -210 610 -306 207 -82 575 -203 864
-285 l250 -70 3173 0 c1745 0 3173 2 3173 5 0 6 -103 185 -235 410 -45 77
-178 306 -295 509 -165 285 -215 365 -221 350 -4 -10 -17 -118 -29 -239 -12
-121 -23 -221 -23 -221 -3 -2 -2473 -7 -2534 -6 -40 2 -53 6 -53 17 0 13 147
15 1259 15 995 0 1261 3 1268 12 6 7 30 198 53 423 61 582 64 611 57 629 -5
12 -20 16 -66 16 l-59 0 -27 -83 c-14 -45 -33 -102 -42 -125 l-15 -44 -22 39
c-43 74 -300 519 -331 573 -18 30 -83 143 -145 250 -62 107 -167 290 -234 405
-67 116 -169 291 -226 390 -57 99 -105 181 -106 183 -1 2 -56 -13 -122 -34
l-120 -37 -6 -39 c-10 -60 -6 -2218 4 -2261 8 -37 8 -38 -11 -22 -45 41 -44
26 -44 1250 l0 1160 28 48 c20 34 42 54 80 74 47 24 66 28 187 33 l135 5 0 60
0 60 -155 5 -154 5 -174 300 c-96 165 -258 444 -360 620 -102 176 -209 361
-237 410 -29 50 -77 133 -108 185 -45 79 -60 97 -88 106 -47 16 -575 114 -934
174 -275 45 -978 150 -1009 150 -7 0 -42 -51 -78 -112z m-90 -1312 c44 -23 76
-93 69 -148 -12 -89 -61 -120 -197 -125 -72 -3 -91 -1 -77 7 15 10 17 28 17
140 0 112 -2 130 -17 140 -32 20 166 6 205 -14z m317 -124 c32 -73 66 -137 74
-142 11 -6 -9 -9 -58 -10 -63 0 -72 2 -58 13 15 10 16 17 6 45 -11 32 -13 33
-62 30 -47 -3 -53 -6 -62 -31 -8 -24 -6 -31 10 -43 17 -13 14 -14 -30 -14
l-48 0 20 23 c18 19 65 117 120 246 8 18 18 30 22 25 4 -5 34 -69 66 -142z
m238 138 c-22 -9 -23 -14 -23 -135 l0 -125 49 0 c42 0 53 4 70 26 12 15 21 33
21 40 0 8 4 14 9 14 8 0 5 -66 -5 -97 -2 -10 -37 -13 -129 -13 l-125 0 20 20
c18 18 20 33 20 130 0 97 -2 112 -20 130 l-20 20 78 -1 c56 0 71 -3 55 -9z
m290 -2 c-20 -10 -23 -19 -23 -70 l0 -58 50 0 50 0 0 56 c0 42 -4 60 -17 70
-16 12 -8 13 57 14 70 0 73 -1 52 -16 -21 -14 -22 -22 -22 -140 0 -120 1 -125
23 -134 16 -6 0 -9 -58 -9 -58 0 -74 3 -57 9 19 8 22 16 22 70 l0 60 -50 0
-50 0 0 -60 c0 -54 3 -62 23 -70 16 -6 -1 -9 -58 -9 -44 1 -73 3 -65 6 26 10
30 26 30 145 0 110 -1 118 -22 132 -21 15 -18 16 57 15 65 0 76 -2 58 -11z
m458 -11 c91 -60 90 -192 -1 -254 -43 -30 -121 -31 -168 -3 -96 59 -96 201 0
260 47 28 125 27 169 -3z m227 12 c-16 -9 -18 -26 -18 -129 0 -108 2 -120 19
-130 30 -16 59 -12 81 10 17 17 20 33 20 126 0 90 -3 109 -17 120 -16 12 -12
13 32 13 42 0 47 -2 34 -12 -12 -9 -17 -36 -21 -117 -3 -64 -10 -114 -18 -127
-31 -49 -129 -60 -177 -19 -27 24 -28 28 -31 138 -3 90 -7 116 -20 126 -13 10
-3 12 59 12 55 -1 70 -3 57 -11z m337 -1 c22 -10 28 -9 36 3 6 9 9 -4 8 -41
l0 -55 -14 32 c-23 53 -93 73 -115 33 -13 -24 9 -49 69 -80 86 -43 104 -98 52
-151 -32 -31 -84 -39 -123 -18 -14 8 -23 8 -31 0 -21 -21 -27 -11 -27 39 0 28
5 50 10 50 6 0 10 -7 10 -15 0 -29 47 -65 83 -65 75 0 72 53 -5 95 -72 39 -88
58 -88 104 0 66 67 100 135 69z m223 1 c-16 -9 -18 -27 -18 -139 0 -112 2
-130 18 -139 13 -8 -2 -10 -58 -10 -56 0 -71 2 -57 10 15 9 17 27 17 139 0
112 -2 130 -17 139 -14 8 1 10 57 10 56 0 71 -2 58 -10z m282 -36 c-1 -40 -2
-45 -12 -28 -17 33 -40 45 -80 45 l-38 0 0 -56 c0 -47 3 -55 18 -52 9 2 25 19
34 38 l18 35 0 -85 0 -85 -18 35 c-9 19 -25 36 -35 38 -16 3 -18 -3 -15 -55 3
-56 4 -58 32 -61 39 -5 79 14 99 46 l16 27 1 -25 c0 -14 -3 -35 -6 -47 -6 -22
-10 -23 -133 -22 -85 0 -119 3 -103 9 21 9 22 14 22 138 0 124 -1 129 -22 140
-18 8 4 11 100 11 l122 1 0 -47z m-1780 -503 c89 -14 171 -42 328 -112 73 -32
153 -63 178 -68 96 -22 161 23 191 131 31 113 40 78 47 -198 3 -142 9 -349 12
-460 l7 -203 -24 0 c-22 0 -26 8 -46 84 -76 293 -251 514 -512 645 -183 93
-426 100 -589 17 -156 -79 -247 -246 -221 -406 15 -92 51 -155 138 -240 91
-88 199 -155 479 -294 572 -286 789 -457 893 -705 86 -206 77 -465 -23 -666
-84 -167 -233 -312 -413 -402 -146 -73 -287 -103 -485 -103 -202 0 -264 14
-604 140 -79 28 -144 35 -192 20 -61 -20 -121 -66 -150 -115 -19 -34 -32 -45
-50 -45 l-24 0 0 525 c0 515 0 525 20 525 14 0 22 -11 30 -42 75 -293 191
-505 358 -658 179 -165 383 -250 597 -250 108 0 203 19 280 56 83 39 187 141
227 222 31 63 33 73 33 177 0 100 -3 116 -28 170 -81 173 -198 263 -632 482
-355 180 -519 286 -646 419 -140 148 -208 287 -229 472 -46 410 244 789 670
877 79 16 291 19 380 5z m843 -262 c4 -128 7 -281 7 -340 0 -60 2 -108 5 -108
10 0 313 77 529 135 114 30 210 55 212 55 2 0 4 -18 4 -40 0 -47 49 -29 -410
-145 l-325 -81 -3 -108 -3 -107 -42 3 c-47 3 -65 31 -26 41 l22 6 -7 223 c-3
123 -9 330 -12 461 l-7 237 25 0 25 0 6 -232z m-2273 197 c0 -12 -15 -15 -73
-15 -156 0 -253 -46 -302 -145 l-30 -60 0 -1205 0 -1205 24 -48 c46 -93 157
-147 304 -147 62 0 77 -3 77 -15 0 -13 -89 -15 -740 -15 -651 0 -740 2 -740
15 0 12 15 15 78 15 156 0 247 45 297 145 l30 60 0 1205 0 1206 -25 49 c-48
93 -158 145 -307 145 -58 0 -73 3 -73 15 0 13 89 15 740 15 651 0 740 -2 740
-15z m4180 0 c0 -12 -16 -15 -88 -15 -207 0 -313 -69 -341 -224 -15 -81 -15
-2205 0 -2296 14 -89 41 -132 103 -167 l51 -28 285 -3 c181 -2 313 1 364 8
326 48 530 263 677 716 39 119 46 134 67 134 12 0 22 -5 22 -11 0 -13 -63
-616 -85 -814 -8 -71 -15 -136 -15 -142 0 -10 -262 -13 -1276 -13 -1016 0
-1275 3 -1272 13 3 8 38 14 104 18 117 7 188 34 235 87 69 78 64 -21 64 1317
l0 1210 -25 50 c-29 57 -91 109 -153 127 -23 6 -82 14 -131 17 -58 4 -91 10
-94 19 -3 9 152 12 752 12 665 0 756 -2 756 -15z m-4080 -59 l0 -33 -102 -6
c-115 -6 -153 -17 -215 -59 -91 -62 -95 -85 -94 -662 1 -264 3 -481 4 -483 2
-1 41 8 88 21 122 36 617 166 629 166 10 0 44 -59 37 -66 -2 -2 -96 -29 -208
-59 -112 -30 -280 -76 -374 -103 l-170 -48 0 -656 c0 -361 -3 -654 -8 -651 -4
2 -15 19 -25 36 -16 30 -17 110 -17 1237 l0 1205 25 44 c14 24 36 53 50 63 40
29 127 48 222 48 77 0 89 2 100 20 7 11 23 20 35 20 19 0 23 -5 23 -34z m2800
-29 l35 -17 -34 5 c-18 3 -64 5 -102 5 -57 0 -69 3 -69 16 0 14 10 16 68 12
37 -3 83 -12 102 -21z m-1439 -22 c35 -9 71 -21 79 -27 11 -7 8 -8 -10 -3 -55
14 -233 18 -289 5 -144 -31 -257 -117 -313 -237 -27 -57 -32 -78 -31 -142 1
-42 6 -89 12 -106 11 -29 10 -29 -5 -10 -60 74 -76 209 -37 297 58 127 169
209 323 238 62 12 195 4 271 -15z m606 -630 c11 -34 11 -35 -25 -45 -21 -5
-183 -45 -362 -89 l-325 -79 -50 26 -50 25 390 97 c215 54 395 98 401 99 6 1
15 -15 21 -34z m328 -1030 c57 -118 69 -182 70 -345 0 -164 -13 -227 -71 -349
-121 -258 -389 -459 -689 -517 -107 -21 -358 -24 -450 -5 -71 14 -237 63 -232
68 2 1 39 -7 83 -19 111 -30 428 -33 549 -4 303 70 539 246 670 497 71 138 90
218 90 389 0 154 -10 210 -60 334 -30 76 -6 46 40 -49z m-1870 -212 c24 -104
78 -253 121 -333 20 -38 26 -55 14 -40 -32 38 -126 236 -153 320 -39 122 -40
130 -19 130 15 0 22 -16 37 -77z m234 -834 c71 -24 75 -31 13 -19 -77 14 -145
-13 -206 -80 -20 -23 -42 -52 -48 -66 -9 -19 -19 -24 -50 -24 -31 0 -38 3 -38
20 0 11 4 20 10 20 5 0 18 17 29 38 22 43 73 94 116 116 41 22 100 20 174 -5z
m-659 -89 c0 -29 -2 -30 -42 -31 -63 -1 -1201 -1 -1350 0 -107 1 -128 3 -128
16 0 13 88 15 730 15 640 0 731 2 736 15 4 8 17 15 30 15 20 0 24 -5 24 -30z
m2290 -320 c9 -5 19 -5 27 2 10 8 13 0 13 -38 l0 -49 -20 32 c-30 51 -105 59
-98 11 2 -14 22 -33 59 -55 68 -39 88 -76 67 -120 -20 -41 -62 -59 -112 -45
-29 7 -45 7 -53 0 -10 -8 -13 1 -13 41 0 32 4 50 10 46 6 -3 10 -12 10 -20 0
-19 49 -55 75 -55 27 0 48 23 43 47 -2 10 -26 30 -53 45 -87 47 -108 96 -60
143 25 26 76 33 105 15z m-1587 -7 c-21 -8 -18 -207 3 -227 22 -22 57 -20 80
5 28 31 34 197 8 216 -16 12 -13 13 22 12 21 0 33 -3 27 -6 -9 -3 -13 -29 -13
-81 0 -135 -28 -182 -107 -182 -22 0 -90 31 -94 42 0 2 -4 54 -7 116 l-7 112
50 -1 c28 0 44 -3 38 -6z m327 -69 l60 -75 0 70 c0 46 -4 71 -12 74 -7 3 5 6
26 6 34 1 37 -1 23 -11 -14 -11 -17 -35 -19 -137 l-3 -123 -85 107 -85 107 -3
-88 c-2 -75 0 -91 14 -101 15 -11 12 -13 -27 -13 -35 1 -40 3 -26 11 14 9 17
26 17 119 0 93 -3 110 -17 119 -14 8 -8 10 29 11 48 0 48 0 108 -76z m242 64
c-8 -8 -12 -49 -12 -120 0 -91 3 -108 18 -117 13 -8 1 -10 -48 -10 -49 0 -61
2 -47 10 14 9 17 26 17 117 0 71 -4 112 -12 120 -9 9 0 12 42 12 42 0 51 -3
42 -12z m141 -6 c-4 -17 53 -159 62 -151 2 3 17 36 34 74 27 64 29 71 14 83
-14 10 -11 12 22 12 35 0 37 -1 23 -17 -9 -10 -37 -67 -63 -128 -27 -60 -51
-114 -55 -118 -4 -5 -31 47 -60 115 -29 68 -57 129 -62 136 -8 9 1 12 40 12
43 0 49 -2 45 -18z m407 -24 c0 -41 -1 -42 -13 -18 -14 28 -51 50 -84 50 -21
0 -23 -5 -23 -55 0 -30 4 -55 9 -55 15 0 41 30 41 46 0 8 3 14 8 14 8 0 7
-129 -2 -138 -3 -3 -6 4 -6 14 0 23 -18 44 -37 44 -9 0 -13 -16 -13 -50 l0
-50 44 0 c38 0 48 5 71 33 25 30 27 30 21 7 -3 -14 -6 -33 -6 -42 0 -16 -12
-18 -111 -18 -100 0 -109 1 -95 16 20 20 23 213 4 232 -9 9 11 12 90 12 l102
0 0 -42z m266 16 c20 -19 24 -31 19 -52 -8 -33 -23 -52 -41 -52 -8 0 -14 -2
-14 -5 0 -11 73 -106 88 -115 13 -7 5 -9 -30 -10 -46 0 -47 1 -89 60 -23 33
-46 60 -50 60 -5 0 -9 -22 -9 -50 0 -36 5 -52 18 -59 13 -8 1 -10 -48 -10 -49
0 -61 2 -47 10 14 9 17 26 17 117 0 71 -4 112 -12 120 -9 9 9 12 80 12 86 0
95 -2 118 -26z m396 14 c-8 -8 -12 -49 -12 -120 0 -91 3 -108 18 -117 13 -8 1
-10 -48 -10 -49 0 -61 2 -47 10 14 9 17 26 17 117 0 71 -4 112 -12 120 -9 9 0
12 42 12 42 0 51 -3 42 -12z m288 -25 c-1 -36 -2 -37 -15 -18 -27 38 -36 45
-55 45 -19 0 -20 -7 -20 -115 0 -98 2 -115 18 -124 13 -8 -1 -10 -53 -10 -52
0 -64 3 -47 9 21 9 22 15 22 119 0 63 -4 112 -10 116 -18 11 -50 -5 -65 -33
l-14 -27 -1 38 0 37 120 0 120 0 0 -37z m124 22 c-3 -8 7 -37 22 -65 31 -57
34 -56 75 18 20 37 21 45 9 52 -11 7 -4 10 24 10 34 0 37 -2 24 -12 -9 -7 -33
-40 -52 -73 -29 -48 -36 -70 -36 -112 0 -41 4 -52 18 -56 9 -3 -17 -5 -58 -4
-41 0 -65 2 -52 4 37 7 30 77 -15 160 -20 37 -43 74 -51 81 -13 10 -6 12 41
12 45 0 55 -3 51 -15z"/>
<path d="M3400 5621 l0 -131 24 0 c50 0 84 79 72 165 -8 52 -30 82 -68 91
l-28 6 0 -131z"/>
<path d="M3707 5625 c-9 -20 -17 -38 -17 -40 0 -3 16 -5 35 -5 19 0 35 5 35
10 0 11 -28 70 -33 70 -2 0 -11 -16 -20 -35z"/>
<path d="M4669 5718 c-27 -44 -24 -175 5 -207 27 -30 81 -28 102 4 33 51 30
179 -7 216 -31 31 -76 25 -100 -13z"/>
<path d="M4737 1913 c-4 -3 -7 -28 -7 -55 0 -46 1 -48 28 -48 35 0 52 16 52
51 0 38 -52 74 -73 52z"/>
<path d="M1050 6885 c0 -8 5 -15 10 -15 6 0 10 7 10 15 0 8 -4 15 -10 15 -5 0
-10 -7 -10 -15z"/>
<path d="M7120 6256 c0 -10 9 -16 21 -16 24 0 21 23 -4 28 -10 2 -17 -3 -17
-12z"/>
<path d="M7878 5263 c6 -2 18 -2 25 0 6 3 1 5 -13 5 -14 0 -19 -2 -12 -5z"/>
<path d="M6623 5010 c-29 -17 -53 -35 -53 -40 0 -13 -2 -13 64 10 71 24 76 27
69 45 -8 21 -21 19 -80 -15z"/>
<path d="M9054 3889 c-8 -14 11 -33 25 -25 6 4 11 14 11 22 0 16 -26 19 -36 3z"/>
<path d="M8027 3513 c-15 -14 -6 -23 22 -23 16 0 34 7 41 15 11 13 7 15 -22
15 -19 0 -38 -3 -41 -7z"/>
<path d="M8560 2420 c0 -5 5 -10 11 -10 5 0 7 5 4 10 -3 6 -8 10 -11 10 -2 0
-4 -4 -4 -10z"/>
<path d="M567 1817 c-54 -95 -127 -223 -163 -285 -36 -63 -64 -115 -62 -118 3
-2 452 -3 999 -2 l994 3 -185 49 c-537 141 -1029 310 -1359 467 -68 33 -124
59 -125 59 -1 -1 -45 -78 -99 -173z"/>
<path d="M260 1550 c-19 -12 -3 -28 34 -36 33 -6 83 3 73 13 -13 12 -95 30
-107 23z"/>
<path d="M5199 1283 c-10 -11 -13 -40 -12 -92 l2 -76 -109 -36 c-97 -32 -110
-34 -110 -19 0 23 -26 44 -45 36 -12 -4 -13 -11 -5 -31 13 -34 13 -35 -3 -35
-8 0 -22 -9 -31 -19 -16 -18 -16 -20 6 -35 12 -9 29 -16 36 -16 10 0 12 -8 7
-30 -4 -17 -2 -30 3 -30 5 0 12 13 15 30 l6 30 53 -21 c139 -56 130 -51 125
-78 -13 -67 38 -78 129 -31 l58 31 620 -3 c342 -1 646 -2 676 -1 85 0 201 28
277 65 56 27 69 38 71 59 4 30 -27 57 -94 83 -129 49 -202 55 -869 61 l-610 7
-25 31 c-46 59 -127 137 -142 137 -9 0 -22 -7 -29 -17z"/>
<path d="M4460 1120 c0 -5 5 -10 10 -10 6 0 10 5 10 10 0 6 -4 10 -10 10 -5 0
-10 -4 -10 -10z"/>
<path d="M4345 670 c3 -5 10 -10 16 -10 5 0 9 5 9 10 0 6 -7 10 -16 10 -8 0
-12 -4 -9 -10z"/>
<path d="M5745 640 c-3 -5 1 -10 9 -10 9 0 16 5 16 10 0 6 -4 10 -9 10 -6 0
-13 -4 -16 -10z"/>
<path d="M368 588 c21 -11 22 -16 22 -134 0 -116 -1 -124 -22 -138 -21 -15
-18 -16 57 -15 65 0 76 2 58 11 -22 11 -23 16 -23 138 0 122 1 127 23 138 18
9 7 11 -58 11 -65 0 -76 -2 -57 -11z"/>
<path d="M537 578 c19 -21 21 -35 21 -133 0 -100 -2 -112 -22 -127 -20 -17
-20 -18 34 -17 47 0 52 2 33 11 -22 10 -23 17 -23 111 0 78 3 97 13 89 6 -6
48 -56 92 -111 44 -55 83 -100 88 -101 4 0 7 60 7 134 0 127 1 134 23 149 21
15 20 16 -33 16 -55 1 -55 0 -32 -17 21 -16 23 -25 20 -86 l-3 -69 -68 87 -67
86 -52 0 -51 0 20 -22z"/>
<path d="M840 553 c0 -48 5 -50 24 -11 7 15 22 24 41 26 l30 3 3 -119 c4 -116
3 -120 -19 -136 -22 -15 -20 -16 56 -15 65 0 76 2 58 11 -22 11 -23 16 -23
135 0 122 0 123 23 123 25 0 57 -28 57 -48 0 -7 5 -12 10 -12 6 0 10 20 10 45
l0 45 -135 0 -135 0 0 -47z"/>
<path d="M1148 588 c21 -11 22 -16 22 -138 0 -122 -1 -127 -22 -138 -18 -8 5
-11 105 -11 94 -1 129 2 132 12 12 38 15 87 5 87 -5 0 -10 -6 -10 -13 0 -23
-45 -58 -83 -64 -41 -6 -43 -4 -50 70 -4 40 -2 48 12 45 9 -2 23 -18 33 -36
21 -43 25 -33 20 56 l-4 74 -16 -34 c-28 -55 -47 -48 -47 17 l0 55 41 0 c40 0
74 -22 74 -48 0 -7 5 -12 10 -12 6 0 10 20 10 45 l0 45 -127 -1 c-100 0 -123
-3 -105 -11z"/>
<path d="M1438 588 c21 -11 22 -16 22 -138 0 -122 -1 -127 -22 -138 -18 -8 7
-11 109 -11 l132 -1 6 44 c8 52 2 82 -10 51 -17 -43 -47 -65 -91 -65 -51 0
-54 7 -54 136 0 90 8 116 40 127 8 3 -23 5 -70 6 -68 0 -81 -2 -62 -11z"/>
<path d="M1736 586 c18 -13 20 -27 22 -134 3 -115 2 -121 -20 -136 -21 -15
-14 -16 104 -16 70 0 129 3 131 8 3 4 8 28 11 55 8 49 -7 67 -18 22 -9 -35
-47 -57 -93 -53 l-38 3 -3 123 c-3 119 -2 123 20 132 17 6 2 9 -57 9 -71 1
-77 0 -59 -13z"/>
<path d="M2033 589 c15 -9 17 -27 17 -139 0 -112 -2 -130 -17 -139 -13 -8 3
-10 62 -10 58 0 74 3 58 9 -22 9 -23 14 -23 139 0 113 2 131 18 140 13 8 -2
10 -58 10 -56 0 -71 -2 -57 -10z"/>
<path d="M2285 591 c-35 -15 -84 -73 -91 -108 -14 -73 20 -143 82 -169 39 -17
114 -18 167 -3 36 10 37 12 37 54 0 31 5 47 18 54 13 8 -2 10 -58 10 -56 0
-71 -2 -57 -10 12 -7 17 -23 17 -54 0 -44 -1 -45 -33 -45 -69 0 -105 64 -92
163 9 63 40 97 89 97 37 0 96 -40 96 -66 0 -8 5 -14 10 -14 6 0 10 23 10 50 0
45 -13 67 -22 39 -2 -7 -12 -7 -31 0 -33 13 -113 13 -142 2z"/>
<path d="M2545 586 c18 -13 19 -25 17 -137 -3 -100 -6 -126 -20 -136 -13 -11
7 -13 110 -13 l126 0 6 31 c3 17 6 41 6 53 0 18 -3 16 -20 -11 -13 -21 -32
-36 -59 -44 -60 -18 -71 -9 -71 56 0 47 3 56 16 53 17 -3 25 -14 40 -53 7 -15
9 -10 12 23 2 23 2 61 0 85 l-4 42 -12 -30 c-13 -28 -29 -45 -44 -45 -5 0 -8
25 -8 55 l0 55 38 0 c38 0 72 -23 72 -48 0 -6 5 -14 10 -17 6 -4 10 13 10 44
l0 51 -122 0 c-107 0 -119 -2 -103 -14z"/>
<path d="M2829 583 c18 -16 20 -30 22 -136 2 -105 0 -119 -17 -132 -17 -13
-15 -14 31 -14 44 0 48 1 32 13 -15 12 -17 27 -15 111 l3 97 90 -111 c50 -61
93 -111 98 -111 4 0 7 62 7 138 0 134 1 139 23 150 19 9 14 11 -33 11 -55 1
-55 0 -32 -17 21 -16 23 -25 20 -85 l-3 -67 -70 85 -69 85 -54 0 c-53 0 -54 0
-33 -17z"/>
<path d="M3140 555 c0 -25 5 -45 10 -45 6 0 10 6 10 14 0 22 29 46 56 46 l24
0 0 -123 c0 -119 -1 -124 -22 -135 -19 -9 -9 -11 55 -11 l77 -1 -20 20 c-19
19 -21 32 -19 135 1 114 2 115 25 115 23 0 31 -6 59 -45 13 -18 14 -16 15 28
l0 47 -135 0 -135 0 0 -45z"/>
<path d="M3575 575 c-52 -51 -26 -107 78 -167 48 -28 59 -52 35 -76 -31 -31
-99 -3 -122 51 l-14 32 -1 -59 c-1 -49 1 -57 13 -47 10 8 21 8 40 1 62 -23
127 -1 145 50 18 53 -2 83 -87 130 -56 31 -71 52 -53 74 8 9 24 16 36 16 27 0
75 -36 75 -56 0 -8 5 -14 10 -14 6 0 10 20 10 45 0 41 -13 61 -22 34 -3 -9 -9
-9 -25 0 -38 20 -91 14 -118 -14z"/>
<path d="M3795 576 c41 -42 95 -160 95 -211 0 -38 -4 -47 -22 -55 -17 -6 1 -9
62 -9 61 0 79 3 63 9 -20 8 -23 17 -23 66 0 46 7 68 36 121 20 35 46 73 57 84
21 19 21 19 -28 19 -45 0 -47 -1 -29 -14 19 -15 18 -16 -11 -71 -16 -31 -33
-59 -37 -61 -8 -5 -68 98 -68 119 0 8 6 18 13 20 6 3 -20 6 -60 6 l-72 1 24
-24z"/>
<path d="M4135 575 c-17 -16 -25 -35 -25 -59 0 -38 15 -53 103 -107 47 -29 59
-53 35 -77 -15 -15 -53 -16 -79 -2 -10 6 -28 27 -38 48 l-20 37 -1 -59 c0 -50
2 -57 14 -47 11 9 20 9 35 2 51 -28 132 -1 150 49 18 54 -2 83 -104 143 -36
21 -46 32 -43 50 2 16 11 23 34 25 33 3 84 -29 84 -54 0 -8 5 -14 10 -14 6 0
10 20 10 45 0 25 -4 45 -10 45 -5 0 -10 -4 -10 -10 0 -6 -9 -6 -26 0 -46 18
-93 12 -119 -15z"/>
<path d="M4347 593 c-10 -9 -9 -83 1 -83 4 0 13 14 19 30 9 24 17 30 42 30
l31 0 0 -123 c0 -119 -1 -124 -22 -135 -19 -9 -8 -11 57 -11 75 -1 78 0 57 15
-21 14 -22 22 -22 135 l0 120 32 -3 c22 -2 36 -10 44 -26 19 -39 24 -37 24 11
l0 47 -128 0 c-71 0 -132 -3 -135 -7z"/>
<path d="M4648 590 c21 -9 22 -14 22 -139 0 -113 -2 -131 -17 -140 -13 -8 17
-10 107 -8 l124 2 8 39 c11 53 5 68 -13 31 -10 -21 -27 -34 -55 -44 -61 -21
-74 -12 -74 54 0 67 22 75 48 18 l17 -38 3 43 c2 23 2 61 0 85 l-4 42 -12 -30
c-13 -28 -29 -45 -44 -45 -5 0 -8 25 -8 55 l0 55 38 0 c38 0 72 -23 72 -48 0
-7 5 -12 10 -12 6 0 10 20 10 45 l0 45 -127 -1 c-87 0 -121 -3 -105 -9z"/>
<path d="M4948 588 c21 -11 22 -16 22 -134 0 -116 -1 -124 -22 -138 -21 -15
-20 -16 32 -15 47 0 52 2 33 11 -22 10 -23 17 -23 121 0 61 2 108 4 106 3 -3
26 -54 52 -114 25 -61 49 -114 53 -118 4 -4 32 50 62 120 l54 128 3 -110 c3
-102 1 -111 -19 -127 -21 -17 -19 -18 57 -17 64 0 75 2 57 11 -22 11 -23 16
-23 138 0 122 1 127 23 138 18 9 11 11 -41 9 l-64 -2 -36 -87 c-19 -49 -39
-88 -42 -88 -4 0 -24 41 -44 90 l-38 90 -61 -1 c-52 0 -58 -2 -39 -11z"/>
<path d="M5386 579 c-20 -16 -26 -29 -26 -58 0 -43 29 -76 97 -110 68 -34 67
-91 -2 -91 -25 0 -40 8 -59 31 -14 17 -26 37 -26 45 0 8 -4 14 -10 14 -11 0
-13 -33 -4 -79 5 -24 9 -29 20 -20 9 7 18 7 33 0 61 -33 151 11 151 73 0 45
-22 70 -91 107 -52 28 -60 36 -57 58 2 20 9 27 31 29 33 4 73 -19 82 -48 11
-34 20 -22 20 25 0 43 -7 56 -20 35 -4 -7 -12 -7 -25 0 -31 17 -85 11 -114
-11z"/>
<path d="M5700 593 c33 -12 37 -32 33 -151 -4 -91 -9 -120 -21 -130 -13 -10 8
-12 111 -12 93 0 129 3 131 13 10 31 15 97 8 97 -5 0 -16 -16 -25 -35 -17 -36
-44 -49 -93 -43 l-29 3 -3 123 c-3 119 -2 123 20 132 17 6 -1 9 -62 9 -47 -1
-78 -3 -70 -6z"/>
<path d="M6106 528 c-19 -40 -48 -103 -64 -140 -17 -38 -36 -68 -41 -68 -6 0
-11 -4 -11 -10 0 -5 21 -10 48 -10 42 1 45 2 29 15 -15 10 -17 21 -12 44 6 30
9 31 60 31 42 0 54 -4 58 -17 2 -10 8 -25 11 -34 5 -11 0 -19 -16 -25 -17 -6
-5 -9 46 -11 69 -4 91 1 68 16 -11 6 -40 67 -118 249 -8 17 -17 32 -20 32 -3
0 -20 -33 -38 -72z m44 -110 c0 -5 -16 -8 -35 -8 -19 0 -35 2 -35 5 0 2 8 20
17 40 l17 36 18 -33 c9 -18 17 -36 18 -40z"/>
<path d="M6328 588 c21 -11 22 -16 22 -138 0 -122 -1 -127 -22 -138 -19 -9 -7
-11 62 -11 134 -1 190 24 190 86 0 23 -26 56 -51 65 -10 4 -6 12 14 27 33 28
34 51 3 88 -23 27 -28 28 -133 30 -86 2 -103 0 -85 -9z m140 -24 c24 -17 30
-62 10 -82 -7 -7 -22 -12 -35 -12 -21 0 -23 4 -23 55 0 60 9 67 48 39z m20
-142 c21 -27 15 -70 -13 -88 -41 -27 -55 -13 -55 56 l0 60 28 -6 c15 -4 33
-13 40 -22z"/>
<path d="M6679 577 c-39 -26 -69 -79 -69 -122 0 -48 40 -117 80 -138 74 -38
196 -5 221 60 14 38 11 121 -6 154 -36 69 -155 94 -226 46z m137 -18 c27 -30
32 -151 7 -199 -22 -43 -68 -53 -97 -21 -40 44 -42 168 -4 216 24 31 68 33 94
4z"/>
<path d="M6969 581 c18 -18 21 -33 21 -101 0 -67 -3 -82 -21 -98 -17 -17 -18
-20 -5 -25 21 -8 20 -34 -1 -46 -13 -8 3 -10 62 -10 65 0 76 2 58 11 -20 10
-23 19 -23 70 0 32 2 58 5 58 3 0 28 -31 56 -70 l51 -70 96 1 c90 0 95 1 75
15 -18 13 -20 19 -11 45 9 27 14 29 58 29 44 0 49 -3 60 -30 11 -27 11 -32 -6
-45 -17 -13 -12 -14 54 -15 66 0 92 10 58 23 -7 3 -40 66 -72 141 -32 75 -62
136 -65 136 -3 0 -32 -57 -64 -127 -32 -71 -63 -134 -68 -140 -19 -26 -46 -12
-86 44 l-40 56 30 28 c36 33 37 68 5 106 -23 27 -28 28 -136 31 l-112 4 21
-21z m163 -24 c12 -19 9 -73 -5 -85 -6 -6 -24 -13 -40 -17 l-27 -7 0 67 0 68
32 -7 c18 -3 36 -12 40 -19z m280 -107 l17 -40 -40 0 -39 0 15 36 c8 20 15 38
15 40 0 2 3 4 8 4 4 0 15 -18 24 -40z"/>
<path d="M7560 553 l0 -48 20 33 c14 22 27 32 45 32 l25 0 0 -123 c0 -119 -1
-124 -22 -135 -19 -9 -8 -11 57 -11 59 0 75 2 63 10 -16 9 -18 26 -18 134 l0
125 25 0 c18 0 31 -10 45 -32 l20 -33 0 48 0 47 -130 0 -130 0 0 -47z"/>
<path d="M7909 577 c-43 -29 -63 -69 -63 -128 0 -115 121 -185 230 -133 71 34
104 152 61 218 -45 68 -159 89 -228 43z m135 -13 c26 -25 37 -97 25 -161 -11
-56 -33 -83 -69 -83 -36 0 -57 26 -70 87 -12 57 0 124 27 156 20 21 66 22 87
1z"/>
<path d="M8198 585 c21 -15 22 -23 22 -139 0 -118 -1 -123 -22 -134 -19 -9 -8
-11 56 -11 76 -1 78 -1 57 17 -19 14 -22 26 -19 72 l3 55 54 -72 c52 -71 54
-73 97 -73 24 0 44 5 44 10 0 6 -4 10 -9 10 -5 0 -27 25 -50 57 l-40 56 30 28
c37 35 39 76 3 110 -23 22 -35 24 -137 27 -105 3 -111 2 -89 -13z m161 -30 c7
-7 14 -25 14 -40 0 -32 -18 -51 -55 -60 l-28 -7 0 66 0 66 28 -6 c15 -4 33
-12 41 -19z"/>
<path d="M8497 578 c11 -13 36 -53 56 -90 29 -52 37 -77 37 -117 0 -44 -3 -53
-22 -61 -17 -6 1 -9 62 -9 61 0 79 3 63 9 -20 8 -23 17 -23 62 0 44 7 65 41
123 22 39 50 78 62 87 22 17 21 18 -28 17 -42 0 -47 -2 -33 -12 17 -14 18 -13
-29 -96 l-25 -43 -36 62 c-33 60 -34 64 -17 77 16 11 9 13 -55 13 l-73 0 20
-22z"/>
</g>
</svg>
